<svg width="32" height="32" viewBox="0 0 32 32" xmlns="http://www.w3.org/2000/svg">
    <path d="M23.887 20.34A3.506 3.506 0 0 1 27.384 17c1.93 0 3.5 1.571 3.5 3.5 0 .86-.324 1.639-.84 2.249 1.295.78 2.285 2.117 2.67 3.765a2.03 2.03 0 0 1-.384 1.733 1.98 1.98 0 0 1-1.56.753H27.57c.054.168.102.34.143.514a2.03 2.03 0 0 1-.384 1.733 1.98 1.98 0 0 1-1.56.753h-6.771c-.611 0-1.18-.274-1.56-.753a2.03 2.03 0 0 1-.384-1.733c.384-1.648 1.374-2.985 2.67-3.765a3.467 3.467 0 0 1-.841-2.249c0-1.929 1.57-3.5 3.5-3.5.538 0 1.048.122 1.503.34zm1.856 4.128a3.148 3.148 0 0 1 1.64-.468c1.584 0 2.976 1.221 3.387 3l-4.301-.02a5.624 5.624 0 0 0-1.425-1.231c.314-.371.557-.805.699-1.281zM14 30H3a2 2 0 0 1-2-2V4a2 2 0 0 1 2-2h9.005c1.293 0 2.653.842 3.233 2.002l.554 1.108.444.89H29a2 2 0 0 1 2 2v6h-2V8H16.007c-.556 0-1.208-.404-1.453-.893l-.551-1.102-.554-1.108C13.2 4.402 12.545 4 12.005 4H3v24h11v2zm11.884-9.5c0-.827.673-1.5 1.5-1.5s1.5.673 1.5 1.5-.673 1.5-1.5 1.5-1.5-.673-1.5-1.5zm-6.882 9.469C19.41 28.221 20.8 27 22.384 27c1.583 0 2.975 1.221 3.386 3l-6.768-.031zm1.882-6.469c0-.827.673-1.5 1.5-1.5s1.5.673 1.5 1.5-.673 1.5-1.5 1.5-1.5-.673-1.5-1.5z" fill-rule="evenodd"/>
</svg>
