<svg width="16" height="16" viewBox="0 0 16 16" xmlns="http://www.w3.org/2000/svg">
    <path d="M9.127 13.534A3.15 3.15 0 0 0 7.384 13C5.8 13 4.41 14.22 4.002 15.969l6.768.03a4.151 4.151 0 0 0-1.104-2.027L15.77 14c-.41-1.78-1.803-3-3.386-3-1.449 0-2.736 1.022-3.257 2.534zM3 15H1V1h6l1 2h7v2H6.764l-.553-1.106L5.764 3H3v12zm2.884-4.5c0-.827.673-1.5 1.5-1.5s1.5.673 1.5 1.5-.673 1.5-1.5 1.5-1.5-.673-1.5-1.5zm5-2c0-.827.673-1.5 1.5-1.5s1.5.673 1.5 1.5-.673 1.5-1.5 1.5-1.5-.673-1.5-1.5z" fill-rule="evenodd"/>
</svg>
